<svg xmlns="http://www.w3.org/2000/svg" viewBox="0 0 349 468.15"><defs><style>.cls-1,.cls-3{fill:#e0a922;}.cls-2{fill:#fff;}.cls-3{stroke:#fff;stroke-miterlimit:10;stroke-width:3px;}</style></defs><title>Ativo 1</title><g id="Camada_2" data-name="Camada 2"><g id="Camada_1-2" data-name="Camada 1"><polygon class="cls-1" points="309.39 68.34 281.65 95.94 262.4 96.2 263.84 76.72 262.62 76.72 290.06 49.41 299.61 59.18 309.39 68.34"/><path class="cls-2" d="M345.77,28.11a10.6,10.6,0,0,0,0-15,10.72,10.72,0,0,0-15.12,0A10.55,10.55,0,0,0,328,23.63L304.34,47.18,280.85,23.82a8.23,8.23,0,0,0-2.42-6.1,8.38,8.38,0,0,0-11.8,0,8.29,8.29,0,0,0,7.82,13.93L297.2,54.29h0l-6-6L274,65.44l-1.57,20.64,20.75-1.56,17.22-17.14L327.09,84a8.25,8.25,0,0,0,2.19,7.78,8.39,8.39,0,0,0,11.81,0A8.28,8.28,0,0,0,335,77.66L311.48,54.29l23.67-23.56A10.67,10.67,0,0,0,345.77,28.11Z"/><polygon class="cls-1" points="296.79 69.41 297.42 61.17 289.13 61.79 284.79 66.12 284.16 74.36 292.44 73.74 296.79 69.41"/><polygon class="cls-2" points="262.37 96.04 263.94 75.4 76.48 261.93 39.69 317.62 95.67 281.01 283.12 94.48 262.37 96.04"/><polygon class="cls-1" points="39.6 68.34 67.35 95.94 86.6 96.2 85.16 76.72 86.38 76.72 58.94 49.41 49.39 59.18 39.6 68.34"/><path class="cls-2" d="M82.37,17.72a8.38,8.38,0,0,0-11.8,0,8.23,8.23,0,0,0-2.42,6.1L44.66,47.18,21,23.63a10.55,10.55,0,0,0-2.64-10.57,10.72,10.72,0,0,0-15.12,0A10.62,10.62,0,0,0,13.85,30.73L37.52,54.29,14,77.66A8.3,8.3,0,1,0,21.91,84L38.65,67.38,55.87,84.52l20.75,1.56L75.05,65.44,57.82,48.3l-6,6h0L74.55,31.65a8.29,8.29,0,0,0,7.82-13.93Z"/><polygon class="cls-1" points="52.21 69.41 51.58 61.17 59.87 61.79 64.22 66.12 64.84 74.36 56.56 73.74 52.21 69.41"/><polygon class="cls-2" points="86.63 96.04 85.06 75.4 272.52 261.93 309.31 317.62 253.33 281.01 65.88 94.48 86.63 96.04"/><path class="cls-3" d="M306.85,122.24s-74-12.3-50.3-94.3L174.61,2.06V2l-.11,0-.1,0v.06L92.25,28.73c23.66,82-50.1,93.51-50.1,93.51C42.15,265.74,169,331.75,174.4,334.6v.1l.1-.05.11.05v-.1c5.42-2.85,132.24-68.86,132.24-212.36"/><path class="cls-2" d="M174.5,312.8c-28-17-106.28-73.45-112.91-176.51,12.85-4.95,30.36-14.66,42.07-33,11-17.21,14.61-37.94,10.89-61.8l60-19.5,59.66,18.85c-3.67,23.75-.05,44.44,10.84,61.71,11.76,18.65,29.45,28.57,42.33,33.64-6.57,103.13-85,159.66-112.91,176.63"/><path class="cls-1" d="M164.23,162.64l-17.46-2.72,8.21,7.24a2.43,2.43,0,0,0,2.09.55l5.38-1.13,3.82,10.19V165A2.41,2.41,0,0,0,164.23,162.64Z"/><path class="cls-1" d="M182.73,165v11.75l3.82-10.19,5.38,1.13a2.43,2.43,0,0,0,2.09-.55l8.21-7.24-17.46,2.72A2.41,2.41,0,0,0,182.73,165Z"/><path class="cls-1" d="M223.47,141.72l8.09-2.49-29.34-19.09H146.78l-29.34,19.09,8.09,2.49-12.18,39.07,10.1-4,.62,45.27,8-6.39,16,27.19,4-7.63,22.44,20.16h0l22.44-20.16,4,7.63,16-27.19,8,6.39.62-45.27,10.1,4Zm-49,72.11h0l-10.09-6.65,10.09-6.37,10.09,6.37-10.09,6.65Zm32-45A12.79,12.79,0,0,1,201,182.16l-8,5.2,3.74,4.82a8,8,0,0,1-1.63,11.41l-4.5,3.27-14.42-9.11v-8.87l6.53-4.33a.72.72,0,0,0-.4-1.31H166.61a.72.72,0,0,0-.4,1.31l6.53,4.33v8.87l-14.42,9.11-4.5-3.27a8,8,0,0,1-1.63-11.41l3.74-4.82-8-5.2a12.79,12.79,0,0,1-5.51-13.37l1.9-8.87-4.71-4.9,7.62-10.23a14,14,0,0,1,18-3.93l9.25,5.06h0l9.25-5.06a14,14,0,0,1,18,3.93L209.34,155l-4.71,4.9Z"/><path class="cls-1" d="M202.25,90.49a3.72,3.72,0,0,0-1.68,7.05,16.11,16.11,0,0,1-13.5,6c-7.85-.31-10.82-9-11.93-14.81a3.73,3.73,0,1,0-1.28,0c-1.11,5.79-4.07,14.5-11.93,14.81a16.11,16.11,0,0,1-13.5-6,3.72,3.72,0,1,0-1.68.4,3.45,3.45,0,0,0,.57,0l6.55,20.39h41.26l6.55-20.39a3.55,3.55,0,0,0,.57,0,3.73,3.73,0,0,0,0-7.45Zm-27.75,25c-1.63,0-3-3-3-6.63s1.33-6.63,3-6.63,3,3,3,6.63S176.13,115.45,174.5,115.45Z"/><path class="cls-2" d="M62.68,425.23h-.54a6.06,6.06,0,0,0-3.06.91,5.12,5.12,0,0,0-2.22,2.61L46.68,461.43a20.9,20.9,0,0,0-1,6.18v.54H45L31.83,438.87l-9.58,22.56a19.18,19.18,0,0,0-1.46,6.72h-.6L5.7,428.75a5.71,5.71,0,0,0-2.25-2.64,5.71,5.71,0,0,0-3-.88H0v-.6H18.49v.6h-.55a2.29,2.29,0,0,0-1.91.82,2.59,2.59,0,0,0-.63,1.55,4.12,4.12,0,0,0,.24,1.4l7.46,21.09,11-26.43.55.06,12.06,26.61L52.74,429a5.37,5.37,0,0,0,.18-1.4,2.75,2.75,0,0,0-.57-1.55,2.19,2.19,0,0,0-1.91-.82h-.55v-.6H62.68Z"/><path class="cls-2" d="M105.6,466.46h.55v.6H86.81v-.6h.55a2.38,2.38,0,0,0,2-.82,2.59,2.59,0,0,0,.63-1.55,3.77,3.77,0,0,0-.3-1.45l-3-7.46H72.5l-3.15,7.46a4.2,4.2,0,0,0-.3,1.48,2.5,2.5,0,0,0,.66,1.52,2.47,2.47,0,0,0,2,.82h.48v.6h-13v-.6h.54a5.29,5.29,0,0,0,2.79-.85,6.41,6.41,0,0,0,2.3-2.54l14-31.71q2.85-6,3-7.94h.54l18,39.52a6.67,6.67,0,0,0,2.3,2.64A5.34,5.34,0,0,0,105.6,466.46ZM73.53,452.64H85.66l-5.88-14.92Z"/><path class="cls-2" d="M123.55,427.3h-2.79v35.34a3.9,3.9,0,0,0,1.18,2.7,3.72,3.72,0,0,0,2.7,1.12h.79v.6H107v-.6h.78a3.7,3.7,0,0,0,3.34-1.88,4.42,4.42,0,0,0,.55-1.88V429.05a3.93,3.93,0,0,0-1.19-2.69,3.67,3.67,0,0,0-2.7-1.13H107v-.6h20.79a18.31,18.31,0,0,1,9.94,2.55,9,9,0,0,1,3.28,3.54,12.74,12.74,0,0,1,1.21,5.94,11.63,11.63,0,0,1-2.55,7.07,10,10,0,0,1-7.39,3.88q3.51,1.14,6.18,5.33,6.56,10.49,9.7,12.49a7.84,7.84,0,0,0,3.94,1v.6h-5.94a23.73,23.73,0,0,1-8.76-1.39,10.93,10.93,0,0,1-5.49-4.91q-1.16-2-5-10.37c-1.13-2.46-2.51-3.82-4.12-4.06v-.6h1.88a7.62,7.62,0,0,0,4.82-1.64,8.63,8.63,0,0,0,2.82-5.33,11.66,11.66,0,0,0,.24-2q0-5-2-7.18a6.82,6.82,0,0,0-5.15-2.27Z"/><path class="cls-2" d="M168.83,427.3H166v35.34a3.91,3.91,0,0,0,1.19,2.7,3.68,3.68,0,0,0,2.69,1.12h.79v.6H152.28v-.6h.79a3.68,3.68,0,0,0,3.33-1.88,4.16,4.16,0,0,0,.55-1.88V429.05a3.92,3.92,0,0,0-1.18-2.69,3.69,3.69,0,0,0-2.7-1.13h-.79v-.6h20.8a18.34,18.34,0,0,1,9.94,2.55,9,9,0,0,1,3.27,3.54,12.61,12.61,0,0,1,1.21,5.94,11.62,11.62,0,0,1-2.54,7.07,10,10,0,0,1-7.4,3.88,12,12,0,0,1,6.19,5.33q6.54,10.49,9.7,12.49a7.8,7.8,0,0,0,3.93,1v.6h-5.93a23.73,23.73,0,0,1-8.76-1.39,10.85,10.85,0,0,1-5.49-4.91q-1.15-2-5-10.37c-1.14-2.46-2.51-3.82-4.13-4.06v-.6h1.88a7.6,7.6,0,0,0,4.82-1.64,8.54,8.54,0,0,0,2.82-5.33,11.66,11.66,0,0,0,.24-2c0-3.31-.66-5.7-2-7.18a6.82,6.82,0,0,0-5.15-2.27Z"/><path class="cls-2" d="M198.17,466.46a3.72,3.72,0,0,0,2.7-1.12,3.9,3.9,0,0,0,1.18-2.7V429a3.89,3.89,0,0,0-3.88-3.77h-.79v-.6h18.43l-.06.6H215a3.82,3.82,0,0,0-2.73,1.1,3.5,3.5,0,0,0-1.15,2.67v33.64a3.63,3.63,0,0,0,1.15,2.7,3.8,3.8,0,0,0,2.73,1.12h.72l.06.6H197.38v-.6Z"/><path class="cls-2" d="M227.66,429.72q6.47-5.94,17.4-5.94t17.4,5.94q6.46,5.94,6.46,16.13T262.46,462q-6.45,5.94-17.4,5.94T227.66,462q-6.45-5.94-6.45-16.12T227.66,429.72Zm7.22,30.4a12.47,12.47,0,0,0,20.33,0q3.77-5.24,3.76-14.27t-3.76-14.28a12.48,12.48,0,0,0-20.33,0q-3.74,5.25-3.73,14.28T234.88,460.12Z"/><path class="cls-2" d="M290.74,427.3H288v35.34a3.91,3.91,0,0,0,1.19,2.7,3.68,3.68,0,0,0,2.69,1.12h.79v.6H274.19v-.6H275a3.71,3.71,0,0,0,3.34-1.88,4.28,4.28,0,0,0,.54-1.88V429.05a3.92,3.92,0,0,0-1.18-2.69,3.69,3.69,0,0,0-2.7-1.13h-.79v-.6H295a18.34,18.34,0,0,1,9.94,2.55,9,9,0,0,1,3.27,3.54,12.61,12.61,0,0,1,1.21,5.94,11.62,11.62,0,0,1-2.54,7.07,10,10,0,0,1-7.4,3.88q3.52,1.14,6.19,5.33,6.54,10.49,9.7,12.49a7.8,7.8,0,0,0,3.93,1v.6h-5.93a23.73,23.73,0,0,1-8.76-1.39,10.85,10.85,0,0,1-5.49-4.91q-1.16-2-5-10.37c-1.13-2.46-2.51-3.82-4.12-4.06v-.6h1.87a7.6,7.6,0,0,0,4.82-1.64,8.54,8.54,0,0,0,2.82-5.33,11.86,11.86,0,0,0,.25-2q0-5-2-7.18a6.82,6.82,0,0,0-5.15-2.27Z"/><path class="cls-2" d="M319.78,461.43a14.13,14.13,0,0,1,1.88-7.46h.55a6.4,6.4,0,0,0-.06,1,10.25,10.25,0,0,0,3,7.31,10.87,10.87,0,0,0,8.22,3.12,9.45,9.45,0,0,0,6.33-1.94,6.18,6.18,0,0,0,2.28-4.91,4.92,4.92,0,0,0-1.12-3.15,15.91,15.91,0,0,0-3.73-3.1l-10.55-7q-5.88-3.94-5.88-9.7a6.21,6.21,0,0,1,.12-1.21,10.84,10.84,0,0,1,3.73-7.7q3.36-2.91,9-2.91a68.08,68.08,0,0,1,8.24.61h3.83l-.79,8.91h-.61a6.22,6.22,0,0,0-2.33-5.06,9.49,9.49,0,0,0-6.22-1.91q-4.73,0-6.85,2.91a4.54,4.54,0,0,0-1.09,2.78,4.7,4.7,0,0,0,.55,2.37,10.53,10.53,0,0,0,3.7,3.39l11.58,7.52q5.44,3.58,5.45,9.34,0,6.42-4.4,9.85t-11.67,3.42a27.35,27.35,0,0,1-7.6-1,11.37,11.37,0,0,1-5.13-2.69A8.19,8.19,0,0,1,319.78,461.43Z"/><path class="cls-2" d="M46.79,366.23q7,6.38,7,17.38t-7,17.38q-7,6.39-19,6.39H3.13v-.68H4a4.13,4.13,0,0,0,3-1.26,4.42,4.42,0,0,0,1.32-3v-38A3.46,3.46,0,0,0,7,361.65a4.55,4.55,0,0,0-3-1.12H3.13v-.68H27.78Q39.8,359.85,46.79,366.23Zm-19.9,38.23a14.29,14.29,0,0,0,8.46-2.52,15.63,15.63,0,0,0,5.46-7.23,27.18,27.18,0,0,0,1.91-10.28A34.5,34.5,0,0,0,41.59,375a19.86,19.86,0,0,0-3.15-6.62,13.64,13.64,0,0,0-11.55-5.64H18.54v41.76Z"/><path class="cls-2" d="M106.4,360.53h-1a7.13,7.13,0,0,0-3.87,1.15,9.62,9.62,0,0,0-2.92,2.78L85.28,385.79v16.63a4,4,0,0,0,1.3,3,4.19,4.19,0,0,0,3,1.26h.82l.06.68H69.87v-.68h.89a4.21,4.21,0,0,0,3-1.22,4.33,4.33,0,0,0,1.32-3V385.72l-13-21.32a8.37,8.37,0,0,0-2.88-2.75,7.37,7.37,0,0,0-3.84-1.12h-.95v-.68H76.93v.68h-.88a2.55,2.55,0,0,0-2.31,1.36,3,3,0,0,0-.4,1.45,3.19,3.19,0,0,0,.33,1.4l9.71,17.65L93.5,364.74a3.07,3.07,0,0,0,.34-1.4,2.41,2.41,0,0,0-.48-1.39,2.52,2.52,0,0,0-2.3-1.42h-.82v-.68H106.4Z"/><path class="cls-2" d="M159.63,360.53a4,4,0,0,0-3.6,2,4.4,4.4,0,0,0-.61,2v35a41.43,41.43,0,0,0,.61,7.68l.21,1h-.61l-34.29-32.66v26.95a3.88,3.88,0,0,0,1.22,2.89,4.06,4.06,0,0,0,2.92,1.19h1.29v.68H106.2v-.68h1.22a4.14,4.14,0,0,0,3-1.19,4,4,0,0,0,1.22-3V367.32a38,38,0,0,0-.61-7.47l-.14-1h.61l34.29,32.66V364.67a4.13,4.13,0,0,0-1.29-2.95,4,4,0,0,0-2.92-1.19h-1.22v-.68h20.57v.68Z"/><path class="cls-2" d="M213,406.7h.61v.68H192v-.68h.61a2.63,2.63,0,0,0,2.21-.92,2.91,2.91,0,0,0,.71-1.73,4.15,4.15,0,0,0-.34-1.63l-3.33-8.35H175.93l-3.53,8.35a4.56,4.56,0,0,0-.34,1.66,2.85,2.85,0,0,0,3,2.62h.55v.68H161.06v-.68h.61a6,6,0,0,0,3.12-.95,7.29,7.29,0,0,0,2.58-2.86l15.69-35.51q3.18-6.72,3.39-8.89h.61l20.17,44.27a7.3,7.3,0,0,0,2.58,2.95A5.88,5.88,0,0,0,213,406.7Zm-35.92-15.48h13.58l-6.59-16.71Z"/><path class="cls-2" d="M214.9,401.06a15.81,15.81,0,0,1,2.1-8.35h.61a9.77,9.77,0,0,0-.06,1.08,11.44,11.44,0,0,0,3.36,8.19q3.36,3.5,9.2,3.5a10.57,10.57,0,0,0,7.09-2.18,6.91,6.91,0,0,0,2.55-5.5,5.48,5.48,0,0,0-1.26-3.53,18.12,18.12,0,0,0-4.17-3.46L222.5,383q-6.58-4.41-6.58-10.86a6.89,6.89,0,0,1,.13-1.36,12.2,12.2,0,0,1,4.18-8.63q3.77-3.25,10.08-3.25a76.22,76.22,0,0,1,9.24.68h4.27l-.88,10h-.68a7,7,0,0,0-2.61-5.67,10.66,10.66,0,0,0-7-2.14q-5.3,0-7.67,3.26a5,5,0,0,0-1.23,3.12,5.41,5.41,0,0,0,.61,2.65,11.94,11.94,0,0,0,4.15,3.8l13,8.42q6.1,4,6.11,10.46,0,7.2-4.93,11t-13.07,3.84a31,31,0,0,1-8.52-1.12,12.82,12.82,0,0,1-5.74-3A9.23,9.23,0,0,1,214.9,401.06Z"/><path class="cls-2" d="M278.52,362.63v39.86a4.34,4.34,0,0,0,4.34,4.21h.82l.07.68H263.1v-.68H264a4.11,4.11,0,0,0,2.95-1.22,4.46,4.46,0,0,0,1.39-2.93V362.63h-9.16a6.78,6.78,0,0,0-5,2,6.86,6.86,0,0,0-1.84,5v.81h-.67V358.56a22.56,22.56,0,0,0,8,1.22h27.36a28.57,28.57,0,0,0,4.58-.41,16.74,16.74,0,0,0,3.43-.81v11.81h-.68v-.81q0-4.21-3.19-6a7.44,7.44,0,0,0-3.6-.95Z"/><path class="cls-2" d="M345.87,360.53h-.95a7.13,7.13,0,0,0-3.87,1.15,9.62,9.62,0,0,0-2.92,2.78l-13.38,21.33v16.63a4.06,4.06,0,0,0,1.29,3,4.23,4.23,0,0,0,3.06,1.26h.81l.07.68H309.34v-.68h.88a4.19,4.19,0,0,0,3-1.22,4.29,4.29,0,0,0,1.33-3V385.72l-13-21.32a8.32,8.32,0,0,0-2.89-2.75,7.31,7.31,0,0,0-3.83-1.12h-.95v-.68H316.4v.68h-.88a2.54,2.54,0,0,0-2.31,1.36,3,3,0,0,0-.41,1.45,3.21,3.21,0,0,0,.34,1.4l9.71,17.65L333,364.74a3.07,3.07,0,0,0,.34-1.4,2.41,2.41,0,0,0-.48-1.39,2.53,2.53,0,0,0-2.31-1.42h-.81v-.68h16.16Z"/></g></g></svg>